<svg data-name="Layer 1" xmlns="http://www.w3.org/2000/svg" viewBox="0 0 445.1 319.68" fill="#ffffff">
  <path class="cls-1" d="M166.12 150.55c-.16-.39-.41-1.13-.58-1.6.22-.42.58-1.21.78-1.6 4.41-8.59 9.02-18.29 13.36-26.67a294.85 294.85 0 0 0 23.27-61.73c5.16-20.72-39.2-50.42-50.34-43.99-7.01 4.05-6.04 5.21-7.29 15.59-4.32 35.86-14.27 72.65-42.52 100.28a70.23 70.23 0 0 1-6.06 5.32c-.21-1.23-.86-6.91-1-8-1.85-13.62-5.92-46.78-7.21-55.6-2.99-20.48-2.18-34.08-9.04-47.88C73.49 12.6 13.92 33 6 49.17c-3.02 6.17 1.57 17.55 3.42 24.46.21.81.92 3.16 1.23 4.27 2.94 10.28 5.42 19.77 8.24 30.05 16 58.45 29.57 111.07 60.9 166.22 6.35 11.17 30.02 44.66 48.58 40.06 13.97-3.46 23.19-6.36 28.79-17.12 5.6-10.76.95-18.16-3.41-29.12-3.78-9.5-11.33-21.27-16.86-31.55-6.81-12.64-14.93-26.56-20.41-40.27-.16-.4 14.89-18.56 16.03-19.67 1.22 2.39 1.05 2.8 2.36 5.6 18.6 39.57 40.88 76.77 85.66 91.5 10.58 3.48 25.23-16.38 28.59-24.83 1.51-3.79 2.3-9.99 1.29-10.62-39.01-24.45-66.37-44.82-84.3-87.62Z"/>
  <path class="cls-1" d="M387.76 28.13a113.37 113.37 0 0 0-22.13-12.93c-31-13.61-68.37-14.56-98.16 3-24.83 14.63-44.35 39.19-53.43 67.22a111.87 111.87 0 0 0-5.55 35.14c.1 17.45 4.41 34.76 11.91 50.36 14.78 30.72 41.27 53.79 73.38 62.85 38.97 11.01 83.55 1.24 113.8-26.75 55.09-50.97 34.61-138.38-19.82-178.91Zm2.64 131.52c-5.27 11.43-14.89 20.29-28.57 26.35-28.41 12.54-52.95 11.27-72.99-3.76-21.66-16.27-33.09-40.19-31.36-65.65.14-2.06.37-4.11.68-6.16 2.64-17.07 11.42-32.77 24.08-44.44 14.16-13.05 30.95-18.32 50.05-18.32 9.76 0 19.89 1.95 27.8 7.9 1.44 2.19 1.45 15.95-2.49 22.11-1.46 2.26-2.63 2.09-3.06 2.03-22.65-3.47-35.06 2.28-47.87 9.57-11.91 6.8-19.81 16.98-22.23 28.67-2.28 10.99.49 22.09 8 32.1 15.14 20.19 47.59 13.49 55.58 7.6.97-.72 2.08-1.46 3.25-2.23 4.86-3.24 10.91-7.26 13.14-13.41 1.4-3.85.61-7.47-2.19-9.92-4.27-3.77-12.45-4.03-16.92-1.75l-3.55 1.86c-6.09 3.22-11.36 6-17.25 6.19-6.28.22-11.27-3.42-12.25-9-.85-4.86 1.12-8.54 7.28-13.58 15.61-12.78 31.66-16.57 47.71-11.24 15.18 5.04 25.55 17.21 27.07 31.75a45.26 45.26 0 0 1-3.9 23.35Z"/>
</svg>