<svg xmlns="http://www.w3.org/2000/svg" viewBox="0 0 739.81 174.79">
  <path d="M145.99 116.15c-5.23-2.89-4.21-13.23-.6-26.24 3.18-11.47.24-18.48-1.8-21.64a9.72 9.72 0 0 0-3.1-3.15c-2.58-1.52-6.31-1.67-9.22-1.76-3.89-.12-7.8.32-11.55 1.35-18.76 5.14-28.77 15.5-31.51 32.59-1.22 7.58 1.2 15.73 6.45 21.81 4.94 5.71 11.87 8.93 19.09 8.84 8.55-.13 13.34-3.97 17.05-11.61.05 3.8 2.63 8.19 3.76 9.16 2.48 2.13 7.29 4.68 11.87 4.62 1.38-.02 2.74-.27 4.01-.84 4.04-1.82 6.46-5.21 6.62-9.27.18-4.36-7.11-1.67-11.07-3.86Zm-18.81-33.96a254.98 254.98 0 0 1-1.77 15.33c-.65 4.6-.86 9.32-4.09 12.9a10.68 10.68 0 0 1-13.43 2.18c-6.29-3.71-4.15-14.67-.7-19.54 3.84-5.42 11.2-9.38 19.99-10.87Zm96.07 25.98c-.92-10.59-4.63-25.23-14.45-31.18-12.16-7.36-23.88-.22-33.78 8.25-.46.39-2.2-14.05-.22-25.96 1.35-8.1 3.66-14.94 5.19-22.38a65.63 65.63 0 0 0 1.38-10.89c.12-3.66-1.1-6.98-4.34-9.14-5.86-3.9-11.86-1.7-16.11 3.24-4.25 4.93-6.05 10.52-7.32 16.49a92.02 92.02 0 0 0-1.79 26.79c1.31 18.18 3.36 37.41 9.55 54.59 2.7 7.49 3.3 14.72 6.11 22.04 1.23 3.21 3.42 6.08 7.06 6.76 3.64.67 6.53-1.03 8.74-4.15 2.2-3.12 2.45-7.07 2.04-10.92-.22-2.1-.82-4.22-1.22-6.35-.4-2.14-.94-4.43-1.29-6.61-.7-4.41-1.41-8.82-1.19-13.28a36.71 36.71 0 0 1 2.79-12.59 9.67 9.67 0 0 1 3.4-4.41c1.56-1.02 3.32-1.58 5.1-.81 3.39 1.46 5.27 3.13 6.63 6.88 1.36 3.75 1.47 8.24 1.47 12.52s-.2 9.25.09 13.57c.29 4.33.51 9.22 1.13 13.26.61 4.04 1.39 7.47 3.49 10.61 2.1 3.15 4.51 4.91 8.19 5.36 3.67.44 6.79-.49 9.21-3.56 6.84-8.65 1-28.16.13-38.11Zm36.52-35.76a9.5 9.5 0 0 0-1.85 2.12c-3.56 5.55-3.16 11.83-3.95 18.1-.34 2.71-1.29 12.67-6.22 10.25-7.21-3.54-7.09-20.49-7.99-28.93-.6-5.59-1.66-16.24-9.06-17.27-7.39-1.03-10.79 5.79-11.05 12.4-.26 6.61.63 10.78 2.61 17.76 3.88 13.67 9.02 27.26 19.62 38.06 2.87 2.93 8.81 2.25 12.03.37 6.19-3.61 8.73-9.08 10.88-15.09 2.95-8.22 5.42-14.51 6.67-23.14.68-4.67 1.02-11.46-3.16-14.73a7.06 7.06 0 0 0-5.4-1.4 6.43 6.43 0 0 0-3.13 1.5Zm30.39 3.22c-2.27-.47-4.89.09-6.92 1.04-6.5 3.01-6.56 11.94-7.05 18.04-1.05 13.14-1.07 25.79 3.94 38.76 4.29 11.1 13.15 22.14 25.44 14.14 4-2.61 4.17-7.43 2.96-12.02-2.25-8.54-10.14-16.49-12.76-24.68-2.62-8.19-.39-15.96-.21-23.85.07-2.98.08-6.64-1.78-9.17a5.82 5.82 0 0 0-3.62-2.25Zm-1.93-30.73c-4.4.35-8.6 3.34-10.59 7.24-1.65 3.22-1.52 7.5-.56 10.92 1.08 3.84 3.81 6.43 7.44 7.93 6.39 2.64 11.88-.58 14.63-6.49 4.01-8.63 2.63-20.69-10.91-19.6Zm440.01 34.69c-7.35-7.83-15.1-9.95-25.22-7.35-11.97 3.08-20.46 11.87-23.21 23.55-1.6 6.81 1.78 11.43 5.34 16.17 1.22 1.62 2.64 2.25 3.91 3.4 2.07 1.87 4.12 3.03 5.51 5.5 1.07 1.9.57 3.75-.77 5.56-.42.57-.72.84-1.74.9-2.28.13-4.69-.86-6.88-1.88-.79-.37-1.56-.79-2.46-1.1-2.31-.8-4.63-1.8-7.16-.85-3.96 1.48-5.3 5.22-4.62 9.22.16.95.49 1.79.93 2.59a22.66 22.66 0 0 0 10.58 9.58c4.28 1.92 7.56 2.27 12.15 2.66.7.06 1.18.11 2.46.03 7.55-.5 14.71-1.83 20.56-7.64a15.5 15.5 0 0 0 4.3-10.84c-.03-5.82-2.4-10.54-6.87-14.32-2.69-2.27-5.76-4.01-8.7-5.89-1.77-1.13-3.63-2.07-5.4-3.22-1.77-1.15-3.12-3.06-3.25-5.12-.13-2.07.23-3.75 1.92-5.03a8.75 8.75 0 0 1 9.9-.66c2.57 1.42 3.8 4 5.63 6.48 1.13 1.53 2.07 2.95 4.03 4.07 2.56 1.45 6.65 1.6 9.26.98 3.18-.76 5.33-5.46 5.74-7.07 2.05-7.91-1.2-14.62-5.95-19.68Zm-205.65 39.32c-5.41-3.08-4.21-13.83-.28-27.33 3.46-11.91.49-19.24-1.59-22.56a10.12 10.12 0 0 0-3.19-3.32c-2.67-1.62-6.55-1.82-9.58-1.95a40.8 40.8 0 0 0-12.05 1.26c-19.6 5.11-30.16 15.76-33.24 33.52-1.37 7.88 1.04 16.4 6.43 22.8 5.07 6.01 12.25 9.45 19.76 9.45 8.91-.02 13.95-3.96 17.9-11.87 0 3.96 2.63 8.57 3.8 9.59 2.56 2.25 7.53 4.97 12.3 4.97 1.44 0 2.86-.24 4.19-.83 4.24-1.85 6.79-5.34 7.02-9.56.24-4.54-7.38-1.84-11.48-4.17ZM503.45 83.3c-.5 5.33-1.22 10.65-2.04 15.94-.74 4.78-1.01 9.69-4.43 13.38a11.12 11.12 0 0 1-14.01 2.09c-6.51-3.95-4.13-15.33-.47-20.36 4.07-5.6 11.78-9.62 20.96-11.06Z"/>
  <path d="M662.4 111.32c-.78.55-1.51 1.07-2.18 1.46-4.69 2.72-9.06 1.03-11.26-.22-3.93-2.23-6.66-6.24-7.14-10.16 1.14.16 2.34.13 3.21.11h.43c2.49-.02 5.14-.19 8.09-.53 5.4-.62 11.26-2.93 17.42-6.87 5.75-3.67 12.5-9.68 11.99-17.45-.2-3.05-1.53-6.01-3.97-8.78-3.66-4.17-9.57-7.52-15.42-8.75-11.88-2.49-20.28 2.51-25.23 7.14-9.68 9.04-14.63 27.81-11.25 39.5 3.21 11.12 14 21 28.9 21.35 3.49.08 6.87-.72 9.78-2.14 3.5-1.71 6.32-4.63 8.06-6.78 4.15-5.1 3.03-8.04 1.37-9.6-4.47-4.19-9.49-.63-12.81 1.72Zm-18.66-19.76c2.28-6.07 5.82-13.06 14.37-14.79 3.2-.65 7.56-.46 10.49.57.36 2.51-1.32 5.33-5.15 8.73-3.48 2.62-12.09 8.16-19.71 5.49Zm-23.8-9.51c-1.7-7.65-5.25-14.67-12.74-17.13-6.03-1.98-14.1-.16-19.1 6.84-2-11-5.49-15.17-10.33-18.55-8.33-5.82-19.06-8.78-27.53-2.73-2.47 1.76-4.14 3.28-5.83 6.55a66.4 66.4 0 0 0-1.24-7.94 30.4 30.4 0 0 0-3.07-8.25c-2.55-4.39-8.16-8.07-12.66-3.88-3.8 3.54-2.75 9.79-1.72 14.26 1.47 6.38 3.61 12.44 4.41 18.97.77 6.32.93 12.77-.14 19.06-1.06 6.2-3.04 12.63-1.65 18.94 1.12 5.09 4.92 10 10.61 9.62 5.75-.39 9.81-5.26 11.3-10.47 1.82-6.34 1.11-13.46 1.2-19.98.09-6.77-2.45-19.39 5.27-23.23 6.57-3.26 10.81 7.16 11.95 12.16 2.38 10.49 2.45 15.45 1.08 32.26-.57 6.94-4.38 16.19 8.37 16.19 3 0 4.74-1.96 5.76-5.51.99-3.46 4.24-18.49 9.02-29.37 1.16-2.63 3.6-6.14 6.58-6.86 10.82-2.64 8.04 13.33 6.34 18.32-1.85 5.45-4 10.86-4.92 16.58-.83 5.19-.57 11.59 4.57 14.52a9.1 9.1 0 0 0 10.87-1.5c2.61-2.65 3.47-6.48 4.03-10.02a112.2 112.2 0 0 0 1.19-16.48c.06-7.45.01-15.07-1.61-22.38ZM74.98 96c-.06-.19-.14-.54-.19-.76l.43-.7c2.41-3.76 4.97-8.02 7.34-11.69a136.37 136.37 0 0 0 13.46-27.4c3.29-9.31-15.82-24.96-21.23-22.49-3.41 1.55-3.01 2.13-4.05 6.86-3.58 16.32-9.8 32.83-24.03 44.3-.67.54-2.22 1.72-3.03 2.18-.04-.57-.09-3.22-.11-3.73-.25-6.35-.65-21.81-.85-25.93-.47-9.57.51-15.79-2.04-22.45-2.23-5.82-30.57.93-34.93 8.02-1.67 2.71-.05 8.15.49 11.42.06.38.28 1.5.38 2.02.9 4.87 1.62 9.35 2.46 14.21 4.78 27.63 8.69 52.47 20.67 79.25 2.43 5.43 11.84 21.9 20.6 20.61 6.59-.98 10.96-1.9 14.02-6.61 3.06-4.7 1.24-8.32-.28-13.56-1.32-4.54-4.27-10.3-6.37-15.28-2.57-6.13-5.7-12.9-7.62-19.45-.06-.19 7.68-7.89 8.26-8.35.46 1.15.36 1.33.84 2.68 6.81 19.05 15.42 37.17 35.39 45.94 4.72 2.07 12.35-6.43 14.27-10.17.86-1.68 1.5-4.5 1.07-4.83-16.88-12.99-28.58-23.58-34.94-44.1Zm348.3-75.18a77.44 77.44 0 0 0-15.14-8.84c-21.21-9.31-46.77-9.96-67.15 2.05-23.82 14.04-40.51 41.43-40.34 70.02a81.1 81.1 0 0 0 8.15 34.45c10.11 21.01 28.23 36.79 50.2 43 26.66 7.53 57.15.85 77.84-18.3 37.68-34.87 23.67-94.66-13.56-122.38Zm1.81 89.97c-3.61 7.82-10.18 13.88-19.54 18.02-19.43 8.58-36.22 7.71-49.93-2.57-14.82-11.13-22.64-27.49-21.45-44.91.1-1.41.25-2.81.47-4.21 1.8-11.67 7.81-22.42 16.47-30.4 9.69-8.93 21.17-12.53 34.24-12.53 6.68 0 13.6 1.33 19.02 5.4.98 1.49.99 10.91-1.71 15.12-1 1.55-1.8 1.43-2.09 1.39-15.49-2.37-23.99 1.56-32.74 6.55-8.15 4.65-13.55 11.62-15.21 19.61-1.56 7.52.34 15.11 5.47 21.96 10.36 13.81 32.55 9.23 38.02 5.2.66-.49 1.42-1 2.22-1.53 3.33-2.21 7.46-4.97 8.99-9.18.96-2.63.42-5.11-1.49-6.79-2.92-2.58-8.52-2.76-11.58-1.2l-2.43 1.27c-4.17 2.2-7.77 4.11-11.8 4.23-4.29.15-7.71-2.34-8.38-6.15-.58-3.32.77-5.84 4.98-9.29 10.68-8.74 21.66-11.33 32.63-7.69 10.38 3.45 17.48 11.78 18.52 21.72a30.95 30.95 0 0 1-2.67 15.97Z"/>
</svg>